HIERARCHY
ROOT Hips
{
	OFFSET 62.890800 8.863803 43.568401
	CHANNELS 6 Xposition Yposition Zposition Zrotation Xrotation Yrotation
	JOINT Chest
	{
		OFFSET -0.160400 1.630001 7.806301
		CHANNELS 6 Xposition Yposition Zposition Zrotation Xrotation Yrotation
		JOINT Chest2
		{
			OFFSET 0.000000 0.000000 3.197998
			CHANNELS 6 Xposition Yposition Zposition Zrotation Xrotation Yrotation
			JOINT Neck
			{
				OFFSET 0.000000 0.000001 7.440701
				CHANNELS 6 Xposition Yposition Zposition Zrotation Xrotation Yrotation
				JOINT Head
				{
					OFFSET 0.000000 0.000000 2.173901
					CHANNELS 6 Xposition Yposition Zposition Zrotation Xrotation Yrotation
					End Site
					{
						OFFSET 0.000000 0.000001 10.420303
					}
				}
			}
			JOINT LeftCollar
			{
				OFFSET 2.426399 -1.880099 4.759399
				CHANNELS 6 Xposition Yposition Zposition Zrotation Xrotation Yrotation
				JOINT LeftShoulder
				{
					OFFSET 4.420197 0.000000 0.000000
					CHANNELS 6 Xposition Yposition Zposition Zrotation Xrotation Yrotation
					JOINT LeftElbow
					{
						OFFSET 0.000000 -0.000001 -10.347099
						CHANNELS 6 Xposition Yposition Zposition Zrotation Xrotation Yrotation
						JOINT LeftWrist
						{
							OFFSET 0.000000 -0.000001 -12.496300
							CHANNELS 6 Xposition Yposition Zposition Zrotation Xrotation Yrotation
							End Site
							{
								OFFSET 0.000000 0.000000 -2.173901
							}
						}
					}
				}
			}
			JOINT RightCollar
			{
				OFFSET -2.781502 -1.903799 5.072601
				CHANNELS 6 Xposition Yposition Zposition Zrotation Xrotation Yrotation
				JOINT RightShoulder
				{
					OFFSET -4.012100 0.000000 0.000000
					CHANNELS 6 Xposition Yposition Zposition Zrotation Xrotation Yrotation
					JOINT RightElbow
					{
						OFFSET 0.000000 -0.000001 -10.346600
						CHANNELS 6 Xposition Yposition Zposition Zrotation Xrotation Yrotation
						JOINT RightWrist
						{
							OFFSET 0.000000 -0.000001 -12.562599
							CHANNELS 6 Xposition Yposition Zposition Zrotation Xrotation Yrotation
							End Site
							{
								OFFSET 0.000000 0.000000 -2.173901
							}
						}
					}
				}
			}
		}
	}
	JOINT LeftHip
	{
		OFFSET 2.047997 -0.047200 -2.693199
		CHANNELS 6 Xposition Yposition Zposition Zrotation Xrotation Yrotation
		JOINT LeftKnee
		{
			OFFSET 0.000000 -0.000001 -18.824400
			CHANNELS 6 Xposition Yposition Zposition Zrotation Xrotation Yrotation
			JOINT LeftAnkle
			{
				OFFSET 0.000000 -0.000002 -19.078199
				CHANNELS 6 Xposition Yposition Zposition Zrotation Xrotation Yrotation
				End Site
				{
					OFFSET 0.000000 -9.342100 0.000001
				}
			}
		}
	}
	JOINT RightHip
	{
		OFFSET -2.129898 -0.022300 -2.538300
		CHANNELS 6 Xposition Yposition Zposition Zrotation Xrotation Yrotation
		JOINT RightKnee
		{
			OFFSET 0.000000 -0.000001 -18.644600
			CHANNELS 6 Xposition Yposition Zposition Zrotation Xrotation Yrotation
			JOINT RightAnkle
			{
				OFFSET 0.000000 -0.000002 -18.801399
				CHANNELS 6 Xposition Yposition Zposition Zrotation Xrotation Yrotation
				End Site
				{
					OFFSET 0.000000 -8.914600 0.000001
				}
			}
		}
	}
}
MOTION
Frames: 4
Frame Time: 0.041667
58.616802 17.343899 40.857792 -275.338203 -3.938871 -26.917818 -0.160397 1.629995 7.806304 3.718231 2.308070 16.059995 0.000005 0.000001 3.198003 1.243516 -3.467436 0.077518 -0.000005 0.000001 7.440704 -53.152259 -3.757197 26.956904 -0.000005 -0.000003 2.173895 -3.572442 1.065123 -6.148697 2.426400 -1.880106 4.759397 -189.523584 175.178001 -163.968991 4.420195 -0.000001 -0.000004 31.207179 -29.128605 -90.256380 -0.000001 -0.000004 -10.347089 691.160448 -180.149982 -536.986959 0.000008 -0.000007 -12.496299 54.556829 4.500941 356.950686 -2.781501 -1.903802 5.072604 -182.147348 -185.385500 180.115271 -4.012099 0.000002 -0.000001 3.399638 -10.020184 460.528073 0.000004 -0.000004 -10.346599 -419.436562 -2.240310 1.005099 0.000000 -0.000004 -12.562601 1722.787576 5.317655 16.953308 2.047997 -0.047208 -2.693202 317.207700 13.643430 4.134919 -0.000001 -0.000002 -18.824396 216.086531 176.248442 -163.766694 0.000002 0.000003 -19.078199 -372.065785 14.696854 -3.287754 -2.129901 -0.022307 -2.538306 -538.774775 0.459145 -80.448215 -0.000001 0.000005 -18.644592 384.665654 176.212160 111.244602 0.000003 0.000001 -18.801397 -42.111787 0.619072 -68.908399
58.603600 17.299906 40.840794 -275.198157 -4.007514 -27.026420 -0.160399 1.630005 7.806303 3.853458 2.388029 16.105137 0.000005 0.000003 3.197997 1.133397 -3.448915 0.073884 -0.000005 0.000001 7.440703 -53.062999 -3.809898 26.974270 -0.000011 0.000001 2.173894 -3.628205 1.015283 -6.105872 2.426406 -1.880102 4.759399 -189.611843 175.170692 -164.004098 4.420196 -0.000004 -0.000006 31.352675 -29.047931 -89.932957 0.000001 0.000000 -10.347096 691.201429 -180.176989 -537.039087 0.000007 -0.000002 -12.496295 54.515677 4.494942 356.968116 -2.781505 -1.903804 5.072602 -182.324674 -185.380596 180.258569 -4.012098 0.000004 -0.000001 3.536527 -10.254638 460.683637 0.000001 0.000003 -10.346600 -419.224061 -2.207298 1.047532 -0.000003 -0.000002 -12.562600 1722.907678 5.391260 16.902437 2.047999 -0.047202 -2.693202 317.121448 13.626322 4.159123 -0.000008 0.000002 -18.824400 216.095834 176.301212 -163.755042 0.000001 -0.000001 -19.078205 -372.139606 14.763787 -3.273138 -2.129892 -0.022298 -2.538294 -538.883074 0.541787 -80.564445 -0.000002 0.000004 -18.644592 384.821546 176.252021 111.174012 0.000005 0.000003 -18.801395 -42.097891 0.667586 -68.763073
58.589802 17.252697 40.822784 -275.049560 -4.084673 -27.150219 -0.160397 1.630003 7.806304 3.990664 2.478696 16.165801 -0.000001 -0.000006 3.198007 1.016569 -3.427198 0.069963 0.000002 0.000007 7.440701 -52.971706 -3.867777 26.987631 -0.000005 -0.000000 2.173913 -3.689376 0.964603 -6.065649 2.426405 -1.880104 4.759395 -189.691729 175.164777 -164.042757 4.420198 0.000002 -0.000004 31.497202 -28.903824 -89.596502 0.000004 -0.000001 -10.347092 691.304100 -180.209692 -537.095368 -0.000002 -0.000002 -12.496298 54.470837 4.483584 356.987897 -2.781502 -1.903805 5.072600 -182.521970 -185.368370 180.409311 -4.012099 0.000000 -0.000004 3.691908 -10.516042 460.848436 -0.000001 0.000002 -10.346593 -419.012926 -2.184952 1.072447 -0.000001 -0.000001 -12.562600 1723.027452 5.376754 16.706489 2.047995 -0.047201 -2.693202 316.988178 13.615141 4.199057 -0.000009 0.000005 -18.824396 216.101462 176.378652 -163.725126 0.000001 -0.000001 -19.078197 -372.183428 14.828460 -3.237198 -2.129896 -0.022298 -2.538292 -538.994871 0.595699 -80.695188 -0.000005 -0.000003 -18.644600 384.942959 176.270339 111.100356 0.000001 -0.000003 -18.801395 -42.063088 0.718956 -68.609155
58.575409 17.204004 40.803692 -274.897246 -4.167636 -27.282139 -0.160401 1.630010 7.806312 4.143138 2.583899 16.246418 0.000000 -0.000000 3.198001 0.884116 -3.395598 0.065248 -0.000001 0.000010 7.440704 -52.903418 -3.923791 26.995133 -0.000004 0.000002 2.173898 -3.731432 0.916798 -6.027812 2.426394 -1.880099 4.759399 -189.768951 175.167619 -164.110089 4.420194 -0.000001 0.000004 31.643881 -28.686634 -89.241052 -0.000006 -0.000000 -10.347092 691.472123 -180.246001 -537.156238 -0.000000 0.000000 -12.496295 54.826642 4.383295 357.173896 -2.781502 -1.903800 5.072601 -182.763609 -185.335435 180.558906 -4.012100 0.000000 -0.000005 3.880955 -10.797541 461.017497 -0.000001 -0.000001 -10.346595 -418.798131 -2.175243 1.070883 0.000001 -0.000003 -12.562597 1723.179902 5.370816 16.576663 2.048000 -0.047192 -2.693188 316.830892 13.610940 4.247957 -0.000008 -0.000006 -18.824404 216.072269 176.481952 -163.685593 0.000004 0.000004 -19.078201 -372.184494 14.884931 -3.172085 -2.129900 -0.022291 -2.538291 -539.115355 0.649368 -80.833854 -0.000004 0.000006 -18.644600 385.071258 176.306280 111.027628 0.000004 0.000003 -18.801401 -42.046880 0.763237 -68.476492
